<svg width="302" height="287" viewBox="0 0 302 287" fill="none" xmlns="http://www.w3.org/2000/svg">
<path d="M89.6867 90.4088C88.7979 128.805 133.341 168 188.94 168C244.54 168 333.083 92.3042 291.031 90.4088C210.002 86.7566 182.234 48.1968 190.359 20.8623C204.91 -28.0915 91.4366 14.8072 89.6867 90.4088Z" fill="#3F3D56"/>
<path d="M165.38 60.4621L164.711 59.9624L165.137 59.1775L164.954 59.0416L164.528 59.8265L163.859 59.3269L163.743 59.5408L164.412 60.0404L163.986 60.8253L164.169 60.9617L164.595 60.1767L165.264 60.676L165.38 60.4621Z" fill="#F9A826"/>
<path d="M215.158 117.297L214.488 116.797L214.914 116.012L214.732 115.877L214.306 116.661L213.637 116.162L213.52 116.376L214.19 116.875L213.764 117.66L213.946 117.797L214.372 117.012L215.041 117.511L215.158 117.297Z" fill="#F9A826"/>
<path d="M134.597 110.385L133.928 109.885L134.354 109.1L134.171 108.964L133.745 109.749L133.076 109.25L132.959 109.463L133.629 109.963L133.203 110.748L133.386 110.884L133.811 110.099L134.481 110.599L134.597 110.385Z" fill="#F9A826"/>
<path d="M194.854 147.251L194.184 146.751L194.61 145.966L194.428 145.83L194.002 146.615L193.333 146.115L193.216 146.329L193.886 146.829L193.46 147.614L193.642 147.75L194.068 146.965L194.737 147.465L194.854 147.251Z" fill="#F9A826"/>
<path d="M138.854 133.042L138.185 132.542L138.611 131.757L138.428 131.621L138.002 132.406L137.333 131.907L137.217 132.121L137.886 132.62L137.46 133.405L137.643 133.541L138.069 132.757L138.738 133.256L138.854 133.042Z" fill="#F9A826"/>
<path d="M273.777 114.225L273.108 113.725L273.534 112.94L273.351 112.804L272.925 113.589L272.256 113.09L272.14 113.304L272.809 113.803L272.383 114.588L272.566 114.724L272.991 113.94L273.661 114.439L273.777 114.225Z" fill="#F9A826"/>
<path d="M125.1 67.7584L124.43 67.2588L124.856 66.4739L124.674 66.338L124.248 67.1229L123.579 66.6233L123.462 66.8372L124.132 67.3368L123.706 68.1217L123.888 68.258L124.314 67.4731L124.984 67.9723L125.1 67.7584Z" fill="#F9A826"/>
<path d="M181.099 76.3908L180.162 75.6919L180.759 74.5928L180.503 74.4024L179.907 75.501L178.97 74.8017L178.807 75.1017L179.744 75.8006L179.148 76.8996L179.403 77.0905L180 75.9914L180.937 76.6907L181.099 76.3908Z" fill="white"/>
<path d="M147.369 90.9151C147.911 90.9151 148.351 90.3993 148.351 89.763C148.351 89.1268 147.911 88.611 147.369 88.611C146.826 88.611 146.386 89.1268 146.386 89.763C146.386 90.3993 146.826 90.9151 147.369 90.9151Z" fill="#F9A826"/>
<path d="M109.053 90.9151C109.596 90.9151 110.036 90.3993 110.036 89.763C110.036 89.1268 109.596 88.611 109.053 88.611C108.511 88.611 108.071 89.1268 108.071 89.763C108.071 90.3993 108.511 90.9151 109.053 90.9151Z" fill="#F9A826"/>
<path d="M175.86 48.6729C176.402 48.6729 176.842 48.1571 176.842 47.5208C176.842 46.8845 176.402 46.3687 175.86 46.3687C175.317 46.3687 174.877 46.8845 174.877 47.5208C174.877 48.1571 175.317 48.6729 175.86 48.6729Z" fill="#F9A826"/>
<path d="M166.69 118.949C167.233 118.949 167.673 118.433 167.673 117.796C167.673 117.16 167.233 116.644 166.69 116.644C166.148 116.644 165.708 117.16 165.708 117.796C165.708 118.433 166.148 118.949 166.69 118.949Z" fill="#F9A826"/>
<path d="M166.035 94.3713C166.397 94.3713 166.69 94.0274 166.69 93.6032C166.69 93.179 166.397 92.8352 166.035 92.8352C165.673 92.8352 165.38 93.179 165.38 93.6032C165.38 94.0274 165.673 94.3713 166.035 94.3713Z" fill="#F9A826"/>
<path d="M233.169 128.165C233.531 128.165 233.824 127.821 233.824 127.397C233.824 126.973 233.531 126.629 233.169 126.629C232.808 126.629 232.514 126.973 232.514 127.397C232.514 127.821 232.808 128.165 233.169 128.165Z" fill="#FF6584"/>
<path d="M132.959 86.3068C133.321 86.3068 133.614 85.963 133.614 85.5388C133.614 85.1146 133.321 84.7708 132.959 84.7708C132.598 84.7708 132.304 85.1146 132.304 85.5388C132.304 85.963 132.598 86.3068 132.959 86.3068Z" fill="#FF6584"/>
<path d="M173.895 24.0956C174.257 24.0956 174.55 23.7517 174.55 23.3275C174.55 22.9033 174.257 22.5595 173.895 22.5595C173.533 22.5595 173.24 22.9033 173.24 23.3275C173.24 23.7517 173.533 24.0956 173.895 24.0956Z" fill="#FF6584"/>
<path d="M147.041 59.8094C147.403 59.8094 147.696 59.4656 147.696 59.0414C147.696 58.6172 147.403 58.2734 147.041 58.2734C146.679 58.2734 146.386 58.6172 146.386 59.0414C146.386 59.4656 146.679 59.8094 147.041 59.8094Z" fill="#F9A826"/>
<path d="M155.228 34.0801C155.59 34.0801 155.883 33.7362 155.883 33.312C155.883 32.8879 155.59 32.544 155.228 32.544C154.867 32.544 154.573 32.8879 154.573 33.312C154.573 33.7362 154.867 34.0801 155.228 34.0801Z" fill="white"/>
<path d="M253.146 103.588C253.688 103.588 254.128 103.072 254.128 102.436C254.128 101.799 253.688 101.284 253.146 101.284C252.603 101.284 252.163 101.799 252.163 102.436C252.163 103.072 252.603 103.588 253.146 103.588Z" fill="#F9A826"/>
<path d="M187.977 107.812C188.519 107.812 188.959 107.296 188.959 106.66C188.959 106.024 188.519 105.508 187.977 105.508C187.434 105.508 186.994 106.024 186.994 106.66C186.994 107.296 187.434 107.812 187.977 107.812Z" fill="#F9A826"/>
<path d="M171.275 137.766C173.084 137.766 174.55 136.046 174.55 133.925C174.55 131.804 173.084 130.085 171.275 130.085C169.466 130.085 168 131.804 168 133.925C168 136.046 169.466 137.766 171.275 137.766Z" fill="#F9A826"/>
<path d="M210.9 93.2192C211.443 93.2192 211.883 92.7034 211.883 92.0671C211.883 91.4309 211.443 90.9151 210.9 90.9151C210.358 90.9151 209.918 91.4309 209.918 92.0671C209.918 92.7034 210.358 93.2192 210.9 93.2192Z" fill="white"/>
</svg>
