<svg width="302" height="287" viewBox="0 0 302 287" fill="none" xmlns="http://www.w3.org/2000/svg">
<path d="M70.6867 90.4088C69.7979 128.805 114.341 168 169.94 168C225.54 168 314.083 92.3042 272.031 90.4088C191.002 86.7566 163.234 48.1968 171.359 20.8623C185.91 -28.0915 72.4366 14.8072 70.6867 90.4088Z" fill="#3F3D56"/>
<path d="M165.38 60.4621L164.711 59.9624L165.137 59.1775L164.954 59.0416L164.528 59.8265L163.859 59.3269L163.743 59.5408L164.412 60.0404L163.986 60.8253L164.169 60.9617L164.595 60.1767L165.264 60.676L165.38 60.4621Z" fill="#F9A826"/>
<path d="M215.158 117.297L214.488 116.797L214.914 116.012L214.732 115.877L214.306 116.661L213.637 116.162L213.52 116.376L214.19 116.875L213.764 117.66L213.946 117.797L214.372 117.012L215.041 117.511L215.158 117.297Z" fill="#F9A826"/>
<path d="M134.597 110.385L133.928 109.885L134.354 109.1L134.171 108.964L133.745 109.749L133.076 109.25L132.959 109.463L133.629 109.963L133.203 110.748L133.386 110.884L133.811 110.099L134.481 110.599L134.597 110.385Z" fill="#F9A826"/>
<path d="M194.854 147.251L194.184 146.751L194.61 145.966L194.428 145.83L194.002 146.615L193.333 146.115L193.216 146.329L193.886 146.829L193.46 147.614L193.642 147.75L194.068 146.965L194.737 147.465L194.854 147.251Z" fill="#F9A826"/>
<path d="M138.854 133.042L138.185 132.542L138.611 131.757L138.428 131.621L138.002 132.406L137.333 131.907L137.217 132.121L137.886 132.62L137.46 133.405L137.643 133.541L138.069 132.757L138.738 133.256L138.854 133.042Z" fill="#F9A826"/>
<path d="M273.777 114.225L273.108 113.725L273.534 112.94L273.351 112.804L272.925 113.589L272.256 113.09L272.14 113.304L272.809 113.803L272.383 114.588L272.566 114.724L272.991 113.94L273.661 114.439L273.777 114.225Z" fill="#F9A826"/>
<path d="M125.1 67.7584L124.43 67.2588L124.856 66.4739L124.674 66.338L124.248 67.1229L123.579 66.6233L123.462 66.8372L124.132 67.3368L123.706 68.1217L123.888 68.258L124.314 67.4731L124.984 67.9723L125.1 67.7584Z" fill="#F9A826"/>
<path d="M181.099 76.3908L180.162 75.6919L180.759 74.5928L180.503 74.4024L179.907 75.501L178.97 74.8017L178.807 75.1017L179.744 75.8006L179.148 76.8996L179.403 77.0905L180 75.9914L180.937 76.6907L181.099 76.3908Z" fill="white"/>
<path d="M147.369 90.9151C147.911 90.9151 148.351 90.3993 148.351 89.763C148.351 89.1268 147.911 88.611 147.369 88.611C146.826 88.611 146.386 89.1268 146.386 89.763C146.386 90.3993 146.826 90.9151 147.369 90.9151Z" fill="#F9A826"/>
<path d="M109.053 90.9151C109.596 90.9151 110.036 90.3993 110.036 89.763C110.036 89.1268 109.596 88.611 109.053 88.611C108.511 88.611 108.071 89.1268 108.071 89.763C108.071 90.3993 108.511 90.9151 109.053 90.9151Z" fill="#F9A826"/>
<path d="M175.86 48.6729C176.402 48.6729 176.842 48.1571 176.842 47.5208C176.842 46.8845 176.402 46.3687 175.86 46.3687C175.317 46.3687 174.877 46.8845 174.877 47.5208C174.877 48.1571 175.317 48.6729 175.86 48.6729Z" fill="#F9A826"/>
<path d="M166.69 118.949C167.233 118.949 167.673 118.433 167.673 117.796C167.673 117.16 167.233 116.644 166.69 116.644C166.148 116.644 165.708 117.16 165.708 117.796C165.708 118.433 166.148 118.949 166.69 118.949Z" fill="#F9A826"/>
<path d="M166.035 94.3713C166.397 94.3713 166.69 94.0274 166.69 93.6032C166.69 93.179 166.397 92.8352 166.035 92.8352C165.673 92.8352 165.38 93.179 165.38 93.6032C165.38 94.0274 165.673 94.3713 166.035 94.3713Z" fill="#F9A826"/>
<path d="M233.169 128.165C233.531 128.165 233.824 127.821 233.824 127.397C233.824 126.973 233.531 126.629 233.169 126.629C232.808 126.629 232.514 126.973 232.514 127.397C232.514 127.821 232.808 128.165 233.169 128.165Z" fill="#FF6584"/>
<path d="M132.959 86.3068C133.321 86.3068 133.614 85.963 133.614 85.5388C133.614 85.1146 133.321 84.7708 132.959 84.7708C132.598 84.7708 132.304 85.1146 132.304 85.5388C132.304 85.963 132.598 86.3068 132.959 86.3068Z" fill="#FF6584"/>
<path d="M173.895 24.0956C174.257 24.0956 174.55 23.7517 174.55 23.3275C174.55 22.9033 174.257 22.5595 173.895 22.5595C173.533 22.5595 173.24 22.9033 173.24 23.3275C173.24 23.7517 173.533 24.0956 173.895 24.0956Z" fill="#FF6584"/>
<path d="M147.041 59.8094C147.403 59.8094 147.696 59.4656 147.696 59.0414C147.696 58.6172 147.403 58.2734 147.041 58.2734C146.679 58.2734 146.386 58.6172 146.386 59.0414C146.386 59.4656 146.679 59.8094 147.041 59.8094Z" fill="#F9A826"/>
<path d="M155.228 34.0801C155.59 34.0801 155.883 33.7362 155.883 33.312C155.883 32.8879 155.59 32.544 155.228 32.544C154.867 32.544 154.573 32.8879 154.573 33.312C154.573 33.7362 154.867 34.0801 155.228 34.0801Z" fill="white"/>
<path d="M253.146 103.588C253.688 103.588 254.128 103.072 254.128 102.436C254.128 101.799 253.688 101.284 253.146 101.284C252.603 101.284 252.163 101.799 252.163 102.436C252.163 103.072 252.603 103.588 253.146 103.588Z" fill="#F9A826"/>
<path d="M187.977 107.812C188.519 107.812 188.959 107.296 188.959 106.66C188.959 106.024 188.519 105.508 187.977 105.508C187.434 105.508 186.994 106.024 186.994 106.66C186.994 107.296 187.434 107.812 187.977 107.812Z" fill="#F9A826"/>
<path d="M171.275 137.766C173.084 137.766 174.55 136.046 174.55 133.925C174.55 131.804 173.084 130.085 171.275 130.085C169.466 130.085 168 131.804 168 133.925C168 136.046 169.466 137.766 171.275 137.766Z" fill="#F9A826"/>
<path d="M210.9 93.2192C211.443 93.2192 211.883 92.7034 211.883 92.0671C211.883 91.4309 211.443 90.9151 210.9 90.9151C210.358 90.9151 209.918 91.4309 209.918 92.0671C209.918 92.7034 210.358 93.2192 210.9 93.2192Z" fill="white"/>
<g clip-path="url(#clip0_50_10)">
<path d="M156.741 102.166C168.688 102.166 178.372 92.2463 178.372 80.0095C178.372 67.7726 168.688 57.8526 156.741 57.8526C144.794 57.8526 135.109 67.7726 135.109 80.0095C135.109 92.2463 144.794 102.166 156.741 102.166Z" fill="#FFB8B8"/>
<path d="M140.595 91.0879C140.595 91.0879 144.671 122.557 138.401 126.089C132.13 129.621 175.708 129.943 175.708 129.943C175.708 129.943 165.989 102.648 170.378 94.299L140.595 91.0879Z" fill="#FFB8B8"/>
<path d="M207.528 130.102L203.904 147.005L196.241 182.767L196.012 184.725L193.367 207.399L191.608 222.461L190.428 232.579C183.257 236.354 178.059 238.961 178.059 238.961C178.059 238.961 177.611 236.665 176.891 233.727C171.858 235.273 162.544 237.837 154.652 238.349C157.526 241.63 158.846 244.712 157.055 246.987C151.648 253.845 129.327 239.479 121.52 234.122C121.338 235.404 121.269 236.701 121.314 237.996L115.339 233.29L115.93 222.461L116.928 204.139L118.181 181.161C117.786 180.177 117.454 179.168 117.189 178.139C115.36 171.474 113.139 158.165 111.436 147.005C110.065 138.023 109.035 130.433 108.817 128.818C108.788 128.607 108.773 128.499 108.773 128.499L141.847 113.53C144.197 119.113 155.172 120.791 155.172 120.791C164.265 120.15 171.393 115.238 171.393 115.238L207.528 130.102Z" fill="#D0CDE1"/>
<path d="M180.568 232.54C180.568 232.54 179.168 233.031 176.891 233.727C171.858 235.273 162.544 237.837 154.652 238.349C147.856 238.795 142.114 237.722 141.064 233.181C140.614 231.229 141.252 229.623 142.644 228.303C146.797 224.359 157.646 222.946 166.251 222.461C168.681 222.325 170.928 222.262 172.799 222.238C175.976 222.196 178.059 222.262 178.059 222.262L178.109 222.461L180.568 232.54Z" fill="#A0616A"/>
<path d="M138.745 59.0511L134.7 57.3926C134.7 57.3926 143.157 47.856 154.923 48.6853L151.614 44.9536C151.614 44.9536 159.703 41.6366 167.057 50.3438C170.923 54.921 175.396 60.3013 178.184 66.3621H182.516L180.708 70.4393L187.035 74.5165L180.541 73.7842C180.928 76.0169 180.987 78.2963 180.717 80.547C180.438 82.7984 179.317 84.8508 177.589 86.2712V86.2712C177.589 86.2712 172.573 75.6364 172.573 73.9779V78.1242C172.573 78.1242 168.528 74.3925 168.528 71.9047L166.322 74.8071L165.219 70.2462L151.614 74.8071L153.82 71.0755L145.363 72.3194L148.673 67.7584C148.673 67.7584 139.113 73.1486 138.745 77.7096C138.377 82.2705 135.579 86.5923 135.579 86.5923C135.579 86.5923 128.082 65.2706 138.745 59.0511Z" fill="#2F2E41"/>
<path d="M231.041 207.812C228.838 210.258 223.378 213.943 216.759 217.932C214.297 219.415 211.676 220.942 209.002 222.461C202.622 226.086 195.941 229.677 190.428 232.579C183.256 236.354 178.059 238.961 178.059 238.961C178.059 238.961 177.611 236.665 176.891 233.727C175.926 229.795 174.473 224.712 172.958 222.461C172.905 222.383 172.852 222.31 172.799 222.238C172.358 221.644 171.913 221.298 171.475 221.298L193.367 207.399L202.827 201.391L196.012 184.726L187.463 163.821L192.623 147.005L197.809 130.102H207.528C207.528 130.102 210.746 137.297 214.862 147.33C215.477 148.831 216.112 150.395 216.759 152.01C225.225 173.101 235.78 202.554 231.041 207.812Z" fill="#D0CDE1"/>
<path d="M157.055 246.987C151.648 253.845 129.327 239.479 121.52 234.122C119.819 232.955 118.807 232.217 118.807 232.217L125.95 222.461L128.212 219.373C128.212 219.373 130.236 220.472 133.227 222.262C133.336 222.328 133.445 222.395 133.557 222.461C136.137 224.013 139.376 226.041 142.644 228.303C147.153 231.428 151.713 234.992 154.652 238.349C157.526 241.63 158.847 244.712 157.055 246.987Z" fill="#A0616A"/>
<path d="M133.227 222.262C132.429 222.259 131.632 222.326 130.845 222.461C124.082 223.651 122.087 229.921 121.52 234.122C121.338 235.404 121.269 236.701 121.314 237.996L115.339 233.29L113.162 231.576C107.923 229.704 103.255 226.381 99.207 222.461C95.6955 219 92.5456 215.174 89.8083 211.045C87.0819 206.974 84.6514 202.704 82.5365 198.269C81.9464 197.032 81.6292 195.676 81.6073 194.299C81.5854 192.922 81.8595 191.556 82.41 190.3L89.8083 173.411L100.622 148.729C100.701 148.141 100.789 147.566 100.884 147.005C103.028 134.41 108.773 128.818 108.773 128.818H113.162L116.098 147.005L119.746 169.6L117.189 178.139L111.283 197.859L116.928 204.139L133.227 222.262Z" fill="#D0CDE1"/>
<path d="M138.195 169.618L141.947 174.102C143.341 173.829 144.797 173.509 146.296 173.15L145.218 169.618L147.853 172.767C163.738 168.765 183.426 160.985 183.426 160.985C183.426 160.985 162.17 162.582 146.3 159.03C139.278 157.459 132.053 161.024 129.171 167.769C127.497 171.689 127.76 175.085 133.7 175.085C135.707 175.05 137.709 174.857 139.687 174.509L138.195 169.618Z" fill="#F9A826"/>
<path d="M223.731 243.311V245.14C223.732 245.642 223.641 246.14 223.463 246.608C223.384 246.816 223.289 247.018 223.178 247.21C222.827 247.813 222.33 248.312 221.734 248.659C221.139 249.005 220.465 249.187 219.78 249.187H88.4199C87.7349 249.187 87.0616 249.005 86.466 248.659C85.8704 248.312 85.3729 247.813 85.0223 247.21C84.9114 247.018 84.8159 246.816 84.7369 246.608C84.559 246.14 84.4682 245.642 84.4692 245.14V243.311C84.4691 242.78 84.5712 242.254 84.7697 241.763C84.9682 241.272 85.2592 240.826 85.6261 240.45C85.9929 240.074 86.4285 239.776 86.9079 239.573C87.3873 239.369 87.9011 239.265 88.4199 239.265H95.9918V238.412C95.9917 238.39 95.996 238.368 96.0043 238.348C96.0125 238.327 96.0247 238.308 96.04 238.293C96.0553 238.277 96.0734 238.265 96.0934 238.256C96.1134 238.248 96.1349 238.243 96.1565 238.243H100.107C100.129 238.243 100.15 238.248 100.17 238.256C100.19 238.265 100.208 238.277 100.224 238.293C100.239 238.308 100.251 238.327 100.259 238.348C100.268 238.368 100.272 238.39 100.272 238.412V239.265H102.74V238.412C102.74 238.39 102.744 238.368 102.752 238.348C102.761 238.327 102.773 238.308 102.788 238.293C102.803 238.277 102.822 238.265 102.842 238.256C102.862 238.248 102.883 238.243 102.905 238.243H106.855C106.877 238.243 106.898 238.248 106.918 238.256C106.938 238.265 106.957 238.277 106.972 238.293C106.987 238.308 106.999 238.327 107.008 238.348C107.016 238.368 107.02 238.39 107.02 238.412V239.265H109.491V238.412C109.491 238.39 109.495 238.368 109.504 238.348C109.512 238.327 109.524 238.308 109.539 238.293C109.555 238.277 109.573 238.265 109.593 238.256C109.613 238.248 109.634 238.243 109.656 238.243H113.607C113.628 238.243 113.65 238.248 113.67 238.256C113.69 238.265 113.708 238.277 113.723 238.293C113.738 238.308 113.751 238.327 113.759 238.348C113.767 238.368 113.771 238.39 113.771 238.412V239.265H116.239V238.412C116.239 238.39 116.244 238.368 116.252 238.348C116.26 238.327 116.272 238.308 116.287 238.293C116.303 238.277 116.321 238.265 116.341 238.256C116.361 238.248 116.382 238.243 116.404 238.243H120.355C120.376 238.243 120.398 238.248 120.418 238.256C120.438 238.265 120.456 238.277 120.471 238.293C120.487 238.308 120.499 238.327 120.507 238.348C120.515 238.368 120.519 238.39 120.519 238.412V239.265H122.988V238.412C122.987 238.39 122.992 238.368 123 238.348C123.008 238.327 123.02 238.308 123.036 238.293C123.051 238.277 123.069 238.265 123.089 238.256C123.109 238.248 123.131 238.243 123.152 238.243H127.103C127.125 238.243 127.146 238.248 127.166 238.256C127.186 238.265 127.204 238.277 127.219 238.293C127.235 238.308 127.247 238.327 127.255 238.348C127.263 238.368 127.268 238.39 127.268 238.412V239.265H129.739V238.412C129.739 238.39 129.743 238.368 129.751 238.348C129.759 238.327 129.772 238.308 129.787 238.293C129.802 238.277 129.82 238.265 129.84 238.256C129.86 238.248 129.882 238.243 129.903 238.243H133.854C133.876 238.243 133.897 238.248 133.917 238.256C133.937 238.265 133.955 238.277 133.971 238.293C133.986 238.308 133.998 238.327 134.006 238.348C134.015 238.368 134.019 238.39 134.019 238.412V239.265H136.487V238.412C136.487 238.39 136.491 238.368 136.499 238.348C136.508 238.327 136.52 238.308 136.535 238.293C136.55 238.277 136.568 238.265 136.588 238.256C136.608 238.248 136.63 238.243 136.652 238.243H167.598C167.62 238.243 167.641 238.248 167.661 238.256C167.681 238.265 167.699 238.277 167.715 238.293C167.73 238.308 167.742 238.327 167.75 238.348C167.759 238.368 167.763 238.39 167.763 238.412V239.265H170.234V238.412C170.234 238.39 170.238 238.368 170.246 238.348C170.254 238.327 170.267 238.308 170.282 238.293C170.297 238.277 170.315 238.265 170.335 238.256C170.355 238.248 170.377 238.243 170.398 238.243H174.349C174.393 238.244 174.434 238.262 174.465 238.293C174.496 238.325 174.513 238.368 174.514 238.412V239.265H176.982V238.412C176.982 238.39 176.986 238.368 176.994 238.348C177.003 238.327 177.015 238.308 177.03 238.293C177.045 238.277 177.064 238.265 177.084 238.256C177.104 238.248 177.125 238.243 177.147 238.243H181.097C181.119 238.243 181.14 238.248 181.16 238.256C181.18 238.265 181.199 238.277 181.214 238.293C181.229 238.308 181.241 238.327 181.25 238.348C181.258 238.368 181.262 238.39 181.262 238.412V239.265H183.73V238.412C183.73 238.39 183.734 238.368 183.743 238.348C183.751 238.327 183.763 238.308 183.778 238.293C183.794 238.277 183.812 238.265 183.832 238.256C183.852 238.248 183.873 238.243 183.895 238.243H187.846C187.867 238.243 187.889 238.248 187.909 238.256C187.929 238.265 187.947 238.277 187.962 238.293C187.977 238.308 187.99 238.327 187.998 238.348C188.006 238.368 188.01 238.39 188.01 238.412V239.265H190.481V238.412C190.481 238.39 190.485 238.368 190.494 238.348C190.502 238.327 190.514 238.308 190.529 238.293C190.545 238.277 190.563 238.265 190.583 238.256C190.603 238.248 190.624 238.243 190.646 238.243H194.597C194.64 238.244 194.681 238.262 194.712 238.294C194.742 238.325 194.759 238.368 194.758 238.412V239.265H197.229V238.412C197.229 238.39 197.234 238.368 197.242 238.348C197.25 238.327 197.262 238.308 197.278 238.293C197.293 238.277 197.311 238.265 197.331 238.256C197.351 238.248 197.373 238.243 197.394 238.243H201.345C201.367 238.243 201.388 238.248 201.408 238.256C201.428 238.265 201.446 238.277 201.461 238.293C201.477 238.308 201.489 238.327 201.497 238.348C201.505 238.368 201.51 238.39 201.51 238.412V239.265H203.978V238.412C203.978 238.39 203.982 238.368 203.99 238.348C203.998 238.327 204.011 238.308 204.026 238.293C204.041 238.277 204.059 238.265 204.079 238.256C204.099 238.248 204.121 238.243 204.142 238.243H208.093C208.115 238.243 208.136 238.248 208.156 238.256C208.176 238.265 208.194 238.277 208.21 238.293C208.225 238.308 208.237 238.327 208.245 238.348C208.254 238.368 208.258 238.39 208.258 238.412V239.265H219.78C220.299 239.265 220.813 239.369 221.292 239.573C221.772 239.776 222.207 240.074 222.574 240.45C222.941 240.826 223.232 241.272 223.431 241.763C223.629 242.254 223.731 242.78 223.731 243.311V243.311Z" fill="#3F3D56"/>
<path d="M261.929 246.608H46.304V247.21H261.929V246.608Z" fill="#3F3D56"/>
<path d="M213.154 166.289H164.192V165.255H141.991V166.289H92.8267C91.9483 166.289 91.1059 166.646 90.4848 167.282C89.8637 167.919 89.5148 168.781 89.5148 169.681V238.352C89.5148 239.252 89.8637 240.115 90.4848 240.751C91.1059 241.387 91.9483 241.744 92.8267 241.744H213.154C214.032 241.744 214.875 241.387 215.496 240.751C216.117 240.115 216.466 239.252 216.466 238.352V169.681C216.466 169.236 216.38 168.794 216.214 168.383C216.047 167.971 215.803 167.597 215.496 167.282C215.188 166.967 214.823 166.717 214.421 166.547C214.02 166.377 213.589 166.289 213.154 166.289V166.289Z" fill="#3F3D56"/>
<path d="M153.087 197.796C157.148 197.796 160.441 194.424 160.441 190.263C160.441 186.103 157.148 182.731 153.087 182.731C149.025 182.731 145.733 186.103 145.733 190.263C145.733 194.424 149.025 197.796 153.087 197.796Z" stroke="#D0CDE1" stroke-width="2" stroke-miterlimit="10"/>
<path d="M150.733 200.508C154.795 200.508 158.088 197.135 158.088 192.975C158.088 188.815 154.795 185.443 150.733 185.443C146.672 185.443 143.379 188.815 143.379 192.975C143.379 197.135 146.672 200.508 150.733 200.508Z" fill="#D0CDE1"/>
<path d="M60.408 243.563H52.1713V252H60.408V243.563Z" fill="#D0CDE1"/>
<path d="M55.4083 236.935V247.179H65.41V236.935H55.4083ZM64.9747 246.733H55.8408V237.381H64.9747V246.733Z" fill="#3F3D56"/>
<path d="M251.028 243.563H242.792V252H251.028V243.563Z" fill="#D0CDE1"/>
<path d="M246.029 236.935V247.179H256.03V236.935H246.029ZM255.595 246.733H246.461V237.381H255.595V246.733Z" fill="#3F3D56"/>
<path d="M72.8065 225.043C73.0809 234.669 67.5894 238.197 60.6976 238.403C60.5375 238.408 60.3781 238.411 60.2195 238.412C59.8999 238.415 59.5834 238.409 59.27 238.396C53.0371 238.131 48.1034 234.742 47.8481 225.789C47.5839 216.524 58.8114 204.486 59.6538 203.595L59.6553 203.595C59.6873 203.561 59.7037 203.544 59.7037 203.544C59.7037 203.544 72.532 215.417 72.8065 225.043Z" fill="#D0CDE1"/>
<path d="M60.2014 236.944L64.5793 230.276L60.2104 237.662L60.2195 238.412C59.8999 238.415 59.5834 238.409 59.27 238.396L59.4872 228.751L59.4812 228.676L59.4892 228.662L59.51 227.75L54.7157 220.621L59.5044 227.068L59.5213 227.261L59.6854 219.973L55.5444 212.582L59.6971 218.693L59.6538 203.596L59.6539 203.545L59.6553 203.595L59.9302 215.494L63.7042 210.66L59.9425 216.519L60.0249 223.037L63.4978 216.675L60.0377 223.996L60.0835 227.62L65.134 218.758L60.0989 228.885L60.2014 236.944Z" fill="#3F3D56"/>
<path d="M263.427 225.043C263.701 234.669 258.21 238.197 251.318 238.403C251.158 238.408 250.999 238.411 250.84 238.412C250.52 238.415 250.204 238.409 249.89 238.396C243.658 238.131 238.724 234.742 238.469 225.789C238.204 216.524 249.432 204.486 250.274 203.595L250.276 203.595C250.308 203.561 250.324 203.544 250.324 203.544C250.324 203.544 263.152 215.417 263.427 225.043Z" fill="#D0CDE1"/>
<path d="M250.822 236.944L255.2 230.276L250.831 237.662L250.84 238.412C250.52 238.415 250.204 238.409 249.891 238.396L250.108 228.751L250.102 228.676L250.11 228.662L250.131 227.75L245.336 220.621L250.125 227.068L250.142 227.261L250.306 219.973L246.165 212.582L250.318 218.693L250.274 203.596L250.274 203.545L250.276 203.595L250.551 215.494L254.325 210.66L250.563 216.519L250.645 223.037L254.118 216.675L250.658 223.996L250.704 227.62L255.755 218.758L250.719 228.885L250.822 236.944Z" fill="#3F3D56"/>
</g>
<defs>
<clipPath id="clip0_50_10">
<rect width="234.93" height="207.667" fill="white" transform="translate(28.5067 44.3333)"/>
</clipPath>
</defs>
</svg>
